<?xml version="1.0" encoding="iso-8859-1"?>
<!-- Generator: Adobe Illustrator 19.0.0, SVG Export Plug-In . SVG Version: 6.00 Build 0)  -->
<svg version="1.1" id="Layer_1" xmlns="http://www.w3.org/2000/svg" xmlns:xlink="http://www.w3.org/1999/xlink" x="0px" y="0px"
	 viewBox="0 0 512 512" style="enable-background:new 0 0 512 512;" xml:space="preserve">
<circle style="fill:#31BAFD;" cx="256" cy="256" r="256"/>
<path style="fill:#2B9ED8;" d="M282.672,510.621c120.082-12.433,215.518-107.866,227.95-227.95L377.289,149.337l-30.523,25.897
	l-80.422-80.418l-20.687,46.052l65.898,65.898l-45.08,45.08l-84.571-84.571l-14.627,14.627l83.554,85.59l-44.063,44.063
	l-65.9-65.898l-46.052,20.687l76.233,76.233l-21.709,34.711L282.672,510.621z"/>
<circle style="fill:#F9B54C;" cx="256" cy="256" r="92.108"/>
<path style="fill:#F4A200;" d="M256,163.895c-0.193,0-0.381,0.014-0.574,0.014v184.182c0.193,0.002,0.381,0.016,0.574,0.016
	c50.869,0,92.107-41.238,92.107-92.107S306.869,163.895,256,163.895z"/>
<rect x="245.657" y="94.815" style="fill:#F2D453;" width="20.687" height="46.052"/>
<rect x="255.431" y="94.815" style="fill:#F4A200;" width="10.917" height="46.052"/>
<rect x="245.657" y="371.14" style="fill:#F2D453;" width="20.687" height="46.052"/>
<g>
	<rect x="255.431" y="371.14" style="fill:#F4A200;" width="10.917" height="46.052"/>
	<rect x="371.14" y="245.657" style="fill:#F4A200;" width="46.052" height="20.687"/>
</g>
<rect x="94.815" y="245.657" style="fill:#F2D453;" width="46.052" height="20.687"/>
<rect x="343.359" y="135.274" transform="matrix(-0.7071 -0.7071 0.7071 -0.7071 491.8719 520.3407)" style="fill:#F4A200;" width="20.687" height="46.052"/>
<g>
	
		<rect x="147.962" y="330.66" transform="matrix(-0.7071 -0.7071 0.7071 -0.7071 20.1501 715.7186)" style="fill:#F2D453;" width="20.687" height="46.052"/>
	
		<rect x="135.277" y="147.952" transform="matrix(-0.7071 -0.7071 0.7071 -0.7071 158.3075 382.1645)" style="fill:#F2D453;" width="46.052" height="20.687"/>
</g>
<rect x="330.664" y="343.342" transform="matrix(-0.7071 -0.7071 0.7071 -0.7071 353.6932 853.8757)" style="fill:#F4A200;" width="46.052" height="20.687"/>
<g>
</g>
<g>
</g>
<g>
</g>
<g>
</g>
<g>
</g>
<g>
</g>
<g>
</g>
<g>
</g>
<g>
</g>
<g>
</g>
<g>
</g>
<g>
</g>
<g>
</g>
<g>
</g>
<g>
</g>
</svg>
