<?xml version="1.0" encoding="iso-8859-1"?>
<!-- Generator: Adobe Illustrator 19.0.0, SVG Export Plug-In . SVG Version: 6.00 Build 0)  -->
<svg version="1.1" id="Layer_1" xmlns="http://www.w3.org/2000/svg" xmlns:xlink="http://www.w3.org/1999/xlink" x="0px" y="0px"
	 viewBox="0 0 496.162 496.162" style="enable-background:new 0 0 496.162 496.162;" xml:space="preserve">
<path style="fill:#48A1AF;" d="M248.077,0C111.072,0,0.002,111.062,0.002,248.083c0,137.005,111.07,248.079,248.075,248.079
	c137.013,0,248.083-111.074,248.083-248.079C496.16,111.062,385.09,0,248.077,0z"/>
<g style="opacity:0.5;">
	<path style="fill:#E4F2F4;" d="M404.774,55.78c-5.99-4.885-12.194-9.502-18.629-13.82c-26.363-17.696-56.315-30.472-88.531-37.002
		c-0.987-0.199-1.997-0.344-2.983-0.532C279.544,1.561,263.998,0,248.077,0c-19.884,0-39.193,2.406-57.723,6.824
		c-6.694,1.595-13.273,3.454-19.746,5.581c-28.031,9.211-53.845,23.277-76.475,41.209c-10.909,8.657-21.107,18.17-30.425,28.51
		c-19.38,21.521-35.002,46.469-45.95,73.8c10.458,18.847,29.378,32.675,52.406,35.602c20.603,2.617,40.203-4.055,54.739-16.678
		c10.719,11.215,25.2,18.981,41.787,21.092c14.497,1.84,28.514-0.899,40.616-7.073c10.979,14.494,27.534,24.749,47.005,27.224
		c27.504,3.493,53.24-9.51,67.454-31.252c9.548,7.375,21.085,12.44,33.923,14.069c22.859,2.903,44.487-5.608,59.322-21.031
		c24.244-1.955,45.527-16.475,56.506-37.698C455.643,107.359,432.737,78.59,404.774,55.78z"/>
</g>
<g>
	<path style="fill:#7CB7C1;" d="M144.902,228.758c0,0-25.843,1.656-38.405,14.222c-6.679,6.679-6.679,17.504,0,24.187
		c6.679,6.679,17.504,6.675,24.184-0.004C144.665,253.174,128.309,245.352,144.902,228.758z"/>
	<path style="fill:#7CB7C1;" d="M63.241,228.758c0,0-25.844,1.656-38.405,14.222c-6.679,6.679-6.679,17.504,0,24.187
		c6.679,6.679,17.504,6.675,24.183-0.004C63.004,253.174,46.647,245.352,63.241,228.758z"/>
	<path style="fill:#7CB7C1;" d="M308.769,228.758c0,0-25.843,1.656-38.413,14.222c-6.679,6.679-6.679,17.504,0,24.187
		c6.679,6.679,17.505,6.675,24.184-0.004C308.531,253.174,292.175,245.352,308.769,228.758z"/>
	<path style="fill:#7CB7C1;" d="M227.107,228.758c0,0-25.844,1.656-38.413,14.222c-6.679,6.679-6.679,17.504,0,24.187
		c6.679,6.679,17.504,6.675,24.183-0.004C226.87,253.174,210.514,245.352,227.107,228.758z"/>
	<path style="fill:#7CB7C1;" d="M474.594,228.758c0,0-25.844,1.656-38.414,14.222c-6.679,6.679-6.679,17.504,0,24.187
		c6.68,6.679,17.505,6.675,24.184-0.004C474.356,253.174,458,245.352,474.594,228.758z"/>
	<path style="fill:#7CB7C1;" d="M392.932,228.758c0,0-25.843,1.656-38.413,14.222c-6.679,6.679-6.679,17.504,0,24.187
		c6.679,6.679,17.505,6.675,24.184-0.004C392.694,253.174,376.338,245.352,392.932,228.758z"/>
	<path style="fill:#7CB7C1;" d="M144.902,358.02c0,0-25.843,1.656-38.405,14.222c-6.679,6.679-6.679,17.504,0,24.188
		c6.679,6.679,17.504,6.675,24.184-0.004C144.665,382.437,128.309,374.615,144.902,358.02z"/>
	<path style="fill:#7CB7C1;" d="M308.769,358.02c0,0-25.843,1.656-38.413,14.222c-6.679,6.679-6.679,17.504,0,24.188
		c6.679,6.679,17.505,6.675,24.184-0.004C308.531,382.437,292.175,374.615,308.769,358.02z"/>
	<path style="fill:#7CB7C1;" d="M227.107,358.02c0,0-25.844,1.656-38.413,14.222c-6.679,6.679-6.679,17.504,0,24.188
		c6.679,6.679,17.504,6.675,24.183-0.004C226.87,382.437,210.514,374.615,227.107,358.02z"/>
	<path style="fill:#7CB7C1;" d="M392.932,358.02c0,0-25.843,1.656-38.413,14.222c-6.679,6.679-6.679,17.504,0,24.188
		c6.679,6.679,17.505,6.675,24.184-0.004C392.694,382.437,376.338,374.615,392.932,358.02z"/>
	<path style="fill:#7CB7C1;" d="M95.289,290.126c0,0-25.844,1.656-38.413,14.222c-6.679,6.679-6.679,17.504,0,24.187
		c6.679,6.679,17.504,6.675,24.184-0.004C95.052,314.543,78.695,306.72,95.289,290.126z"/>
	<path style="fill:#7CB7C1;" d="M259.147,290.126c0,0-25.844,1.656-38.405,14.222c-6.679,6.679-6.679,17.504,0,24.187
		c6.679,6.679,17.504,6.675,24.183-0.004C258.91,314.543,242.554,306.72,259.147,290.126z"/>
	<path style="fill:#7CB7C1;" d="M177.486,290.126c0,0-25.844,1.656-38.405,14.222c-6.68,6.679-6.68,17.504,0,24.187
		c6.679,6.679,17.504,6.675,24.183-0.004C177.249,314.543,160.893,306.72,177.486,290.126z"/>
	<path style="fill:#7CB7C1;" d="M424.973,290.126c0,0-25.844,1.656-38.406,14.222c-6.679,6.679-6.679,17.504,0,24.187
		c6.679,6.679,17.505,6.675,24.184-0.004C424.735,314.543,408.378,306.72,424.973,290.126z"/>
	<path style="fill:#7CB7C1;" d="M343.31,290.126c0,0-25.843,1.656-38.405,14.222c-6.679,6.679-6.679,17.504,0,24.187
		c6.679,6.679,17.504,6.675,24.184-0.004C343.073,314.543,326.717,306.72,343.31,290.126z"/>
	<path style="fill:#7CB7C1;" d="M259.147,418.081c0,0-25.844,1.66-38.405,14.222c-6.679,6.683-6.679,17.508,0,24.187
		s17.504,6.679,24.183,0C258.91,442.501,242.554,434.679,259.147,418.081z"/>
	<path style="fill:#7CB7C1;" d="M177.486,418.081c0,0-25.844,1.66-38.405,14.222c-6.68,6.683-6.68,17.508,0,24.187
		c6.679,6.679,17.504,6.679,24.183,0C177.249,442.501,160.893,434.679,177.486,418.081z"/>
	<path style="fill:#7CB7C1;" d="M343.31,418.081c0,0-25.843,1.66-38.405,14.222c-6.679,6.683-6.679,17.508,0,24.187
		s17.504,6.679,24.184,0C343.073,442.501,326.717,434.679,343.31,418.081z"/>
</g>
<g style="opacity:0.5;">
	<path style="fill:#E4F2F4;" d="M372.949,33.75c-5.662-3.305-11.423-6.45-17.359-9.307c-14.023-6.751-28.781-12.195-44.113-16.234
		c-0.787-0.21-1.575-0.421-2.363-0.62c-15.432-3.906-31.421-6.373-47.847-7.233C256.899,0.127,252.5,0,248.078,0
		c-11.805,0-23.396,0.88-34.756,2.475c-21.835,3.064-42.774,8.924-62.397,17.286c-0.949,0.406-1.881,0.861-2.831,1.282
		c-8.676,3.825-17.091,8.136-25.216,12.898C95.489,49.988,71.467,71.13,52.088,96.082c-0.704,0.907-1.438,1.794-2.135,2.712
		c0.91,0.367,1.859,0.654,2.785,0.987c5.906,31.172,31.986,55.818,65.136,58.396c14.98,1.163,29.24-2.353,41.359-9.303
		c12.003,14.333,29.516,24.034,49.628,25.599c28.414,2.203,54.196-12.44,67.707-35.483c10.176,7.1,22.271,11.717,35.529,12.75
		c23.625,1.836,45.405-7.995,59.865-24.577c26.86-3.489,49.43-21.942,58.45-47.253C413.711,61.816,394.348,46.244,372.949,33.75z"/>
</g>
<path style="fill:#E4F2F4;" d="M248.077,0C173.408,0,106.489,33.039,61.014,85.242c4.101-0.379,8.117-1.075,12.012-2.077
	c12.555,23.02,36.967,38.639,65.029,38.639c18.735,0,35.797-7.012,48.833-18.483c13.036,11.472,30.097,18.483,48.833,18.483
	c32.117,0,59.376-20.488,69.627-49.082c12.271,9.031,27.382,14.433,43.784,14.433c23.877,0,45.062-11.354,58.595-28.904
	C364.579,21.922,308.898,0,248.077,0z"/>
<g>
</g>
<g>
</g>
<g>
</g>
<g>
</g>
<g>
</g>
<g>
</g>
<g>
</g>
<g>
</g>
<g>
</g>
<g>
</g>
<g>
</g>
<g>
</g>
<g>
</g>
<g>
</g>
<g>
</g>
</svg>
